{"asset":{"version":"2.0","generator":"IUI demo crumpled-paper generator"},"scene":0,"scenes":[{"nodes":[0]}],"nodes":[{"mesh":0}],"meshes":[{"primitives":[{"attributes":{"POSITION":0,"NORMAL":1,"COLOR_0":2},"material":0,"mode":4}]}],"materials":[{"pbrMetallicRoughness":{"baseColorFactor":[1,1,1,1],"metallicFactor":0,"roughnessFactor":0.96},"doubleSided":true}],"buffers":[{"byteLength":230400,"uri":"data:application/octet-stream;base64,"}],"bufferViews":[{"buffer":0,"byteOffset":0,"byteLength":69120,"target":34962},{"buffer":0,"byteOffset":69120,"byteLength":69120,"target":34962},{"buffer":0,"byteOffset":138240,"byteLength":92160,"target":34962}],"accessors":[{"bufferView":0,"componentType":5126,"count":5760,"type":"VEC3","normalized":false,"min":[-0.7,-0.7,-0.7],"max":[0.7,0.7,0.7]},{"bufferView":1,"componentType":5126,"count":5760,"type":"VEC3","normalized":false},{"bufferView":2,"componentType":5126,"count":5760,"type":"VEC4","normalized":false}]}
